<svg width="18" height="16" viewBox="0 0 18 16" fill="none" xmlns="http://www.w3.org/2000/svg">
<path d="M16.5262 4.03321L9.70703 0.664068C9.48697 0.556123 9.24511 0.5 9 0.5C8.75489 0.5 8.51303 0.556123 8.29297 0.664068L1.47383 4.03321C1.10664 4.21136 0.797078 4.48936 0.580625 4.83536C0.364171 5.18135 0.249585 5.58134 0.250001 5.98946V13.2008C0.250001 14.407 1.24297 15.3883 2.46367 15.3883H15.5363C16.757 15.3883 17.75 14.407 17.75 13.2008V5.98946C17.7504 5.58134 17.6358 5.18135 17.4194 4.83536C17.2029 4.48936 16.8934 4.21136 16.5262 4.03321ZM8.85859 1.78204C8.90261 1.76045 8.95098 1.74922 9 1.74922C9.04902 1.74922 9.09739 1.76045 9.14141 1.78204L15.7578 5.05L9.03906 8.37032C8.99505 8.39191 8.94668 8.40313 8.89766 8.40313C8.84864 8.40313 8.80026 8.39191 8.75625 8.37032L2.13867 5.10196L8.85859 1.78204Z" fill="white"/>
</svg>
