<svg width="13" height="18" viewBox="0 0 13 18" fill="none" xmlns="http://www.w3.org/2000/svg">
<path d="M2.47665 1.03254L3.37332 0.745878C4.21415 0.477545 5.11249 0.911712 5.47249 1.76004L6.18915 3.45005C6.50082 4.18588 6.32749 5.05171 5.76082 5.59004L4.18165 7.08838C4.27915 7.98505 4.58082 8.86755 5.08582 9.73588C5.56538 10.576 6.20863 11.3113 6.97749 11.8984L8.87415 11.265C9.59249 11.0259 10.3758 11.3017 10.8158 11.9492L11.8433 13.4575C12.3558 14.2109 12.2633 15.2492 11.6275 15.8875L10.9467 16.5717C10.2683 17.2525 9.29915 17.5 8.40332 17.22C6.28665 16.56 4.34249 14.6009 2.56749 11.3425C0.789987 8.07921 0.162487 5.30921 0.685821 3.03588C0.905821 2.07921 1.58665 1.31671 2.47665 1.03254Z" fill="white"/>
</svg>
